<svg width="1894" height="2143" xmlns="http://www.w3.org/2000/svg" xmlns:xlink="http://www.w3.org/1999/xlink" xml:space="preserve" overflow="hidden"><defs><clipPath id="clip0"><rect x="1161" y="141" width="1894" height="2143"/></clipPath></defs><g clip-path="url(#clip0)" transform="translate(-1161 -141)"><text font-family="FZXiaoBiaoSong-B05S,FZXiaoBiaoSong-B05S_MSFontService,sans-serif" font-weight="400" font-size="92" transform="matrix(1 0 0 1 1465.65 293)">畜牧兽医生产经营主体代码结构</text><text font-family="Microsoft YaHei,Microsoft YaHei_MSFontService,sans-serif" font-weight="700" font-size="110" transform="matrix(1 0 0 1 1271.11 577)">XXXXXX    </text><text fill="#C00000" font-family="Microsoft YaHei,Microsoft YaHei_MSFontService,sans-serif" font-weight="700" font-size="110" transform="matrix(1 0 0 1 1862.36 577)">XX</text><text font-family="Microsoft YaHei,Microsoft YaHei_MSFontService,sans-serif" font-weight="700" font-size="110" transform="matrix(1 0 0 1 2146.53 577)">XXXXXX    </text><text fill="#C00000" font-family="Microsoft YaHei,Microsoft YaHei_MSFontService,sans-serif" font-weight="700" font-size="110" transform="matrix(1 0 0 1 2737.78 577)">X</text><path d="M1501.08 621.5 1501.08 1355.4 1491.92 1355.4 1491.92 621.5ZM1510.25 1350.81 1496.5 1378.31 1482.75 1350.81Z"/><text font-family="FangSong,FangSong_MSFontService,sans-serif" font-weight="700" font-size="83" transform="matrix(1 0 0 1 1281.11 1480)">6</text><text font-family="FangSong,FangSong_MSFontService,sans-serif" font-weight="700" font-size="83" transform="matrix(1 0 0 1 1322.93 1480)">位行政区划代码</text><path d="M1943.08 621.5 1943.08 1166.6 1933.92 1166.6 1933.92 621.5ZM1952.25 1162.02 1938.5 1189.52 1924.75 1162.02Z" fill="#C00000"/><text fill="#C00000" font-family="FangSong,FangSong_MSFontService,sans-serif" font-weight="700" font-size="83" transform="matrix(1 0 0 1 1720.08 1300)">2</text><text fill="#C00000" font-family="FangSong,FangSong_MSFontService,sans-serif" font-weight="700" font-size="83" transform="matrix(1 0 0 1 1761.9 1300)">位畜牧兽医生产经营主体分类码</text><text font-family="FangSong,FangSong_MSFontService,sans-serif" font-weight="700" font-size="83" transform="matrix(1 0 0 1 2156.18 1120)">6</text><text font-family="FangSong,FangSong_MSFontService,sans-serif" font-weight="700" font-size="83" transform="matrix(1 0 0 1 2198.01 1120)">位顺序码</text><path d="M2378.08 621.5 2378.08 995.764 2368.92 995.764 2368.92 621.5ZM2387.25 991.181 2373.5 1018.68 2359.75 991.181Z"/><text fill="#C00000" font-family="FangSong,FangSong_MSFontService,sans-serif" font-weight="700" font-size="83" transform="matrix(1 0 0 1 2567.87 940)">1</text><text fill="#C00000" font-family="FangSong,FangSong_MSFontService,sans-serif" font-weight="700" font-size="83" transform="matrix(1 0 0 1 2609.69 940)">位</text><text fill="#C00000" font-family="FangSong,FangSong_MSFontService,sans-serif" font-weight="700" font-size="83" transform="matrix(1 0 0 1 2692.76 940)">校验码</text><path d="M2786.08 621.5 2786.08 815.948 2776.92 815.948 2776.92 621.5ZM2795.25 811.364 2781.5 838.864 2767.75 811.364Z" fill="#C00000"/><rect x="1163.5" y="143.5" width="1889" height="2138" stroke="#000000" stroke-width="4.58333" stroke-miterlimit="8" fill="none"/><text fill="#0070C0" font-family="FangSong,FangSong_MSFontService,sans-serif" font-weight="700" font-size="83" transform="matrix(1 0 0 1 1467.26 1722)">常用主体分类码</text><text fill="#0070C0" font-family="FangSong,FangSong_MSFontService,sans-serif" font-weight="700" font-size="83" transform="matrix(1 0 0 1 2048.77 1722)">:   </text><text fill="#0070C0" font-family="FangSong,FangSong_MSFontService,sans-serif" font-weight="700" font-size="83" transform="matrix(1 0 0 1 2216.06 1722)">养殖场：</text><text fill="#0070C0" font-family="FangSong,FangSong_MSFontService,sans-serif" font-weight="700" font-size="83" transform="matrix(1 0 0 1 2548.35 1722)">01</text><text fill="#0070C0" font-family="FangSong,FangSong_MSFontService,sans-serif" font-weight="700" font-size="83" transform="matrix(1 0 0 1 2220.07 1821)">养殖户：</text><text fill="#0070C0" font-family="FangSong,FangSong_MSFontService,sans-serif" font-weight="700" font-size="83" transform="matrix(1 0 0 1 2552.36 1821)">90</text><text fill="#0070C0" font-family="FangSong,FangSong_MSFontService,sans-serif" font-weight="700" font-size="83" transform="matrix(1 0 0 1 2220.07 1920)">屠宰场：</text><text fill="#0070C0" font-family="FangSong,FangSong_MSFontService,sans-serif" font-weight="700" font-size="83" transform="matrix(1 0 0 1 2552.36 1920)">25</text><path d="M1163 1596 3051.96 1596" stroke="#000000" stroke-width="2.29167" stroke-miterlimit="8" fill="none" fill-rule="evenodd"/><text font-family="FangSong,FangSong_MSFontService,sans-serif" font-weight="700" font-size="73" transform="matrix(1 0 0 1 1451.82 2111)">第</text><text font-family="FangSong,FangSong_MSFontService,sans-serif" font-weight="700" font-size="73" transform="matrix(1 0 0 1 1525.72 2111)">15</text><text font-family="FangSong,FangSong_MSFontService,sans-serif" font-weight="700" font-size="73" transform="matrix(1 0 0 1 1600.2 2111)">位校验码</text><text font-family="FangSong,FangSong_MSFontService,sans-serif" font-weight="700" font-size="73" transform="matrix(1 0 0 1 1895.83 2111)">采用</text><text font-family="FangSong,FangSong_MSFontService,sans-serif" font-weight="700" font-size="73" transform="matrix(1 0 0 1 2080.88 2111)">GB/T 17710 </text><text font-family="FangSong,FangSong_MSFontService,sans-serif" font-weight="700" font-size="73" transform="matrix(1 0 0 1 2490.52 2111)">中规定</text><text font-family="FangSong,FangSong_MSFontService,sans-serif" font-weight="700" font-size="73" transform="matrix(1 0 0 1 2712.23 2111)">的</text><text font-family="FangSong,FangSong_MSFontService,sans-serif" font-weight="700" font-size="73" transform="matrix(1 0 0 1 1395.1 2199)">“</text><text font-family="FangSong,FangSong_MSFontService,sans-serif" font-weight="700" font-size="73" transform="matrix(1 0 0 1 1469.01 2199)">ISO/IEC 7064 </text><text font-family="FangSong,FangSong_MSFontService,sans-serif" font-weight="700" font-size="73" transform="matrix(1 0 0 1 1953.12 2199)">MOD11,10 ” </text><text font-family="FangSong,FangSong_MSFontService,sans-serif" font-weight="700" font-size="73" transform="matrix(1 0 0 1 2399.42 2199)">校验算法计算</text><path d="M0 0 1881.23 0.534121" stroke="#000000" stroke-width="2.29167" stroke-miterlimit="8" fill="none" fill-rule="evenodd" transform="matrix(1 0 0 -1 1171 1980.53)"/><path d="M1163 382 3051.96 382" stroke="#000000" stroke-width="2.29167" stroke-miterlimit="8" fill="none" fill-rule="evenodd"/></g></svg>